<svg width="56" height="56" viewBox="0 0 56 56" fill="none" xmlns="http://www.w3.org/2000/svg">
<rect x="0.5" y="0.5" width="55" height="55" rx="11.5" fill="#E9F5FF" stroke="#C2DCF0"/>
<path d="M28 43C36.2843 43 43 36.2843 43 28C43 19.7157 36.2843 13 28 13C19.7157 13 13 19.7157 13 28C13 36.2843 19.7157 43 28 43Z" stroke="black" stroke-width="1.5" stroke-linecap="round" stroke-linejoin="round"/>
<path d="M23.6348 23.5C23.9874 22.4975 24.6835 21.6522 25.5997 21.1137C26.5159 20.5752 27.5931 20.3784 28.6405 20.5581C29.688 20.7377 30.638 21.2823 31.3224 22.0953C32.0068 22.9083 32.3813 23.9373 32.3798 25C32.3798 28 27.8798 29.5 27.8798 29.5" stroke="black" stroke-width="1.5" stroke-linecap="round" stroke-linejoin="round"/>
<path d="M28 35.5H28.015" stroke="black" stroke-width="1.5" stroke-linecap="round" stroke-linejoin="round"/>
</svg>
