<svg width="56" height="56" viewBox="0 0 56 56" fill="none" xmlns="http://www.w3.org/2000/svg">
<rect x="0.5" y="0.5" width="55" height="55" rx="11.5" fill="#C1DCEF"/>
<path d="M36.832 26.3451C38.9245 26.0511 40.5355 24.2571 40.54 22.0836C40.54 19.9416 38.9785 18.1656 36.931 17.8296" stroke="black" stroke-width="1.5" stroke-linecap="round" stroke-linejoin="round"/>
<path d="M39.5938 31.3755C41.6202 31.6785 43.0347 32.388 43.0347 33.8505C43.0347 34.857 42.3687 35.511 41.2917 35.922" stroke="black" stroke-width="1.5" stroke-linecap="round" stroke-linejoin="round"/>
<path fill-rule="evenodd" clip-rule="evenodd" d="M27.8291 31.9961C23.0081 31.9961 18.8906 32.7266 18.8906 35.6441C18.8906 38.5601 22.9826 39.3116 27.8291 39.3116C32.6501 39.3116 36.7661 38.5886 36.7661 35.6696C36.7661 32.7506 32.6756 31.9961 27.8291 31.9961Z" stroke="black" stroke-width="1.5" stroke-linecap="round" stroke-linejoin="round"/>
<path fill-rule="evenodd" clip-rule="evenodd" d="M27.8301 27.832C30.9936 27.832 33.5586 25.2685 33.5586 22.1035C33.5586 18.94 30.9936 16.375 27.8301 16.375C24.6666 16.375 22.1016 18.94 22.1016 22.1035C22.0896 25.2565 24.6351 27.8215 27.7881 27.832H27.8301Z" stroke="black" stroke-width="1.5" stroke-linecap="round" stroke-linejoin="round"/>
<path d="M18.8291 26.3451C16.7351 26.0511 15.1256 24.2571 15.1211 22.0836C15.1211 19.9416 16.6826 18.1656 18.7301 17.8296" stroke="black" stroke-width="1.5" stroke-linecap="round" stroke-linejoin="round"/>
<path d="M16.066 31.3755C14.0395 31.6785 12.625 32.388 12.625 33.8505C12.625 34.857 13.291 35.511 14.368 35.922" stroke="black" stroke-width="1.5" stroke-linecap="round" stroke-linejoin="round"/>
<rect x="0.5" y="0.5" width="55" height="55" rx="11.5" stroke="#8EB6D0"/>
</svg>
