<svg width="56" height="56" viewBox="0 0 56 56" fill="none" xmlns="http://www.w3.org/2000/svg">
<rect x="0.5" y="0.5" width="55" height="55" rx="11.5" fill="#C1DCEF" stroke="#8EB6D0"/>
<path d="M13 14.5H22C23.5913 14.5 25.1174 15.1321 26.2426 16.2574C27.3679 17.3826 28 18.9087 28 20.5V41.5C28 40.3065 27.5259 39.1619 26.682 38.318C25.8381 37.4741 24.6935 37 23.5 37H13V14.5Z" stroke="black" stroke-width="1.5" stroke-linecap="round" stroke-linejoin="round"/>
<path d="M43 14.5H34C32.4087 14.5 30.8826 15.1321 29.7574 16.2574C28.6321 17.3826 28 18.9087 28 20.5V41.5C28 40.3065 28.4741 39.1619 29.318 38.318C30.1619 37.4741 31.3065 37 32.5 37H43V14.5Z" stroke="black" stroke-width="1.5" stroke-linecap="round" stroke-linejoin="round"/>
</svg>
