<svg width="16" height="16" viewBox="0 0 16 16" fill="none" xmlns="http://www.w3.org/2000/svg">
<circle cx="8" cy="8" r="8" fill="#8251C1"/>
<path d="M8.00079 12.0719C7.78479 12.0719 7.60479 12.0119 7.46079 11.8919C7.32479 11.7639 7.25679 11.5839 7.25679 11.3519V6.7199C7.25679 6.4879 7.32479 6.3119 7.46079 6.1919C7.60479 6.0719 7.78479 6.0119 8.00079 6.0119C8.21679 6.0119 8.39679 6.0719 8.54079 6.1919C8.68479 6.3119 8.75679 6.4879 8.75679 6.7199V11.3519C8.75679 11.5839 8.68479 11.7639 8.54079 11.8919C8.39679 12.0119 8.21679 12.0719 8.00079 12.0719ZM8.00079 4.9439C7.72879 4.9439 7.51279 4.8719 7.35279 4.7279C7.19279 4.5759 7.11279 4.3799 7.11279 4.1399C7.11279 3.8999 7.19279 3.7079 7.35279 3.5639C7.51279 3.4199 7.72879 3.3479 8.00079 3.3479C8.26479 3.3479 8.47679 3.4199 8.63679 3.5639C8.80479 3.7079 8.88879 3.8999 8.88879 4.1399C8.88879 4.3799 8.80879 4.5759 8.64879 4.7279C8.48879 4.8719 8.27279 4.9439 8.00079 4.9439Z" fill="white"/>
</svg>
