<svg width="594" height="283" viewBox="0 0 594 283" fill="none" xmlns="http://www.w3.org/2000/svg">
<g clip-path="url(#clip0_266_1663)">
<path d="M-372.343 538.358L-239.144 398.819L-60.7728 472.282L80.2618 252.311L412.114 196.687L759.259 -66.6601" stroke="#8EB6D0" stroke-opacity="0.5"/>
<path d="M-372.342 538.358L-250.556 348.164L-65.4545 451.77L70.4646 213.002L403.837 159.599L747.277 -123.407" stroke="#8EB6D0" stroke-opacity="0.5"/>
<path d="M-372.341 538.358L-225.527 461.816L-70.9642 429.037L59.7914 165.178L422.193 244.131L752.576 -98.1846" stroke="#8EB6D0" stroke-opacity="0.5"/>
<circle cx="79.7056" cy="251.957" r="3" transform="rotate(-11.9735 79.7056 251.957)" fill="#8EB6D0"/>
<circle cx="70.9907" cy="212.917" r="3" transform="rotate(-11.9735 70.9907 212.917)" fill="#8EB6D0"/>
<circle cx="60.3188" cy="165.094" r="3" transform="rotate(-11.9735 60.3188 165.094)" fill="#8EB6D0"/>
<circle cx="411.557" cy="196.332" r="3" transform="rotate(-11.9735 411.557 196.332)" fill="#8EB6D0"/>
<circle cx="403.28" cy="159.245" r="3" transform="rotate(-11.9735 403.28 159.245)" fill="#8EB6D0"/>
<circle cx="422.233" cy="244.155" r="3" transform="rotate(-11.9735 422.233 244.155)" fill="#8EB6D0"/>
</g>
<defs>
<clipPath id="clip0_266_1663">
<rect width="595" height="284" fill="white"/>
</clipPath>
</defs>
</svg>
